<?xml version="1.0" encoding="UTF-8" standalone="yes"?>
<svg version="1.1" id="Layer_1" xmlns:x="&amp;ns_extend;" xmlns:i="&amp;ns_ai;" xmlns:graph="&amp;ns_graphs;" xmlns="http://www.w3.org/2000/svg" xmlns:xlink="http://www.w3.org/1999/xlink" x="0px" y="0px" viewBox="0 0 315 315" style="enable-background:new 0 0 315 315;" xml:space="preserve">
      <style type="text/css">.st0{fill:#574091;}</style>
    <metadata>
              <sfw>
                      <slices/>
            <sliceSourceBounds bottomLeftOrigin="true" height="315" width="315" x="6912.22" y="872.02"/>
                  </sfw>
          </metadata>
    <g id="color_index_0" fill="#574091">
              <path d="M315,5.04c-40.74,23.8-81.3,56.11-119.05,95.16c-13.71-11.15-26.44-22.88-38.07-35&#x9;&#x9;c11.89-21.68,21.22-43.48,27.57-64.65L166.9,0.49c-5.37,16.69-12.63,33.76-21.66,50.86c-14.5-16.68-26.9-33.85-36.56-51.03&#x9;&#x9;L88.69,0.26c11.7,22.76,27.77,45.6,47.4,67.46c-7.45,12.58-15.81,25.05-24.98,37.3C76.7,71.56,47.84,35.92,25.71,0.06L5.04,0&#x9;&#x9;c23.8,40.73,56.11,81.3,95.15,119.06c-11.14,13.7-22.88,26.44-34.99,38.07c-21.68-11.89-43.48-21.22-64.65-27.57L0.49,148.1&#x9;&#x9;c16.69,5.36,33.76,12.64,50.86,21.66c-16.68,14.5-33.85,26.9-51.04,36.56l-0.06,19.99c22.76-11.7,45.6-27.78,67.46-47.4&#x9;&#x9;c12.58,7.45,25.05,15.81,37.3,24.98c-33.46,34.42-69.1,63.27-104.95,85.4L0,309.96c40.73-23.8,81.3-56.11,119.05-95.15&#x9;&#x9;c13.7,11.15,26.44,22.87,38.06,34.99c-11.89,21.68-21.22,43.48-27.57,64.65l18.55,0.06c5.36-16.69,12.63-33.76,21.66-50.86&#x9;&#x9;c14.5,16.68,26.9,33.86,36.56,51.04l19.99,0.06c-11.7-22.76-27.77-45.6-47.4-67.46c7.45-12.58,15.81-25.05,24.98-37.3&#x9;&#x9;c34.42,33.46,63.27,69.1,85.4,104.95l20.67,0.06c-23.8-40.73-56.11-81.3-95.16-119.05c11.15-13.7,22.88-26.44,35-38.07&#x9;&#x9;c21.68,11.89,43.48,21.22,64.65,27.57l0.06-18.55c-16.69-5.36-33.76-12.63-50.86-21.66c16.68-14.5,33.86-26.9,51.04-36.56&#x9;&#x9;l0.06-19.99c-22.76,11.7-45.6,27.77-67.46,47.4c-12.58-7.45-25.05-15.81-37.3-24.98c33.46-34.42,69.09-63.27,104.95-85.4L315,5.04z&#x9;&#x9; M148.67,81.07c10.92,11.11,22.69,21.87,35.26,32.15c-9.4,10.24-18.6,20.82-27.56,31.82c-11.16-9.08-21.87-18.41-32.21-27.94&#x9;&#x9;C133.08,105.29,141.26,93.25,148.67,81.07z M81.07,166.33c11.11-10.92,21.88-22.69,32.15-35.26c10.24,9.4,20.82,18.61,31.82,27.56&#x9;&#x9;c-9.08,11.16-18.41,21.87-27.94,32.2C105.28,181.92,93.25,173.74,81.07,166.33z M166.32,233.93&#x9;&#x9;c-10.92-11.11-22.69-21.87-35.26-32.14c9.4-10.24,18.61-20.81,27.56-31.82c11.16,9.07,21.86,18.41,32.2,27.94&#x9;&#x9;C181.92,209.72,173.73,221.75,166.32,233.93z M233.93,148.68c-11.11,10.92-21.87,22.69-32.15,35.26&#x9;&#x9;c-10.24-9.4-20.81-18.6-31.82-27.56c9.07-11.16,18.41-21.87,27.94-32.21C209.71,133.08,221.75,141.27,233.93,148.68z"/>
          </g>
  </svg>